<svg id="visual" viewBox="0 0 900 600" width="900" height="600" xmlns="http://www.w3.org/2000/svg" xmlns:xlink="http://www.w3.org/1999/xlink" version="1.1"><rect x="0" y="0" width="900" height="600" fill="#25282c"></rect><defs><linearGradient id="grad1_0" x1="33.3%" y1="0%" x2="100%" y2="100%"><stop offset="20%" stop-color="#45a3fb" stop-opacity="1"></stop><stop offset="80%" stop-color="#45a3fb" stop-opacity="1"></stop></linearGradient></defs><defs><linearGradient id="grad1_1" x1="33.3%" y1="0%" x2="100%" y2="100%"><stop offset="20%" stop-color="#45a3fb" stop-opacity="1"></stop><stop offset="80%" stop-color="#3e78b0" stop-opacity="1"></stop></linearGradient></defs><defs><linearGradient id="grad1_2" x1="33.3%" y1="0%" x2="100%" y2="100%"><stop offset="20%" stop-color="#344e6a" stop-opacity="1"></stop><stop offset="80%" stop-color="#3e78b0" stop-opacity="1"></stop></linearGradient></defs><defs><linearGradient id="grad1_3" x1="33.3%" y1="0%" x2="100%" y2="100%"><stop offset="20%" stop-color="#344e6a" stop-opacity="1"></stop><stop offset="80%" stop-color="#25282c" stop-opacity="1"></stop></linearGradient></defs><defs><linearGradient id="grad2_0" x1="0%" y1="0%" x2="66.7%" y2="100%"><stop offset="20%" stop-color="#45a3fb" stop-opacity="1"></stop><stop offset="80%" stop-color="#45a3fb" stop-opacity="1"></stop></linearGradient></defs><defs><linearGradient id="grad2_1" x1="0%" y1="0%" x2="66.7%" y2="100%"><stop offset="20%" stop-color="#3e78b0" stop-opacity="1"></stop><stop offset="80%" stop-color="#45a3fb" stop-opacity="1"></stop></linearGradient></defs><defs><linearGradient id="grad2_2" x1="0%" y1="0%" x2="66.7%" y2="100%"><stop offset="20%" stop-color="#3e78b0" stop-opacity="1"></stop><stop offset="80%" stop-color="#344e6a" stop-opacity="1"></stop></linearGradient></defs><defs><linearGradient id="grad2_3" x1="0%" y1="0%" x2="66.7%" y2="100%"><stop offset="20%" stop-color="#25282c" stop-opacity="1"></stop><stop offset="80%" stop-color="#344e6a" stop-opacity="1"></stop></linearGradient></defs><g transform="translate(900, 0)"><path d="M0 324.5C-20 319.2 -40 314 -62.2 312.9C-84.5 311.8 -108.9 314.9 -124.2 299.8C-139.4 284.7 -145.5 251.4 -152.8 228.7C-160 205.9 -168.5 193.8 -185.3 185.3C-202 176.7 -227.1 171.9 -235.3 157.2C-243.5 142.6 -234.8 118.2 -244.8 101.4C-254.9 84.6 -283.7 75.3 -300.1 59.7C-316.5 44.1 -320.5 22 -324.5 0L0 0Z" fill="#2e3b4a"></path><path d="M0 243.4C-15 239.4 -30 235.5 -46.7 234.7C-63.3 233.8 -81.7 236.2 -93.1 224.8C-104.6 213.5 -109.1 188.5 -114.6 171.5C-120 154.4 -126.4 145.3 -138.9 138.9C-151.5 132.6 -170.3 128.9 -176.5 117.9C-182.6 106.9 -176.1 88.7 -183.6 76.1C-191.2 63.4 -212.8 56.5 -225.1 44.8C-237.4 33 -240.4 16.5 -243.4 0L0 0Z" fill="#3a638c"></path><path d="M0 162.2C-10 159.6 -20 157 -31.1 156.4C-42.2 155.9 -54.5 157.4 -62.1 149.9C-69.7 142.3 -72.8 125.7 -76.4 114.3C-80 103 -84.2 96.9 -92.6 92.6C-101 88.4 -113.6 85.9 -117.7 78.6C-121.7 71.3 -117.4 59.1 -122.4 50.7C-127.4 42.3 -141.9 37.7 -150.1 29.8C-158.3 22 -160.3 11 -162.2 0L0 0Z" fill="#428dd5"></path><path d="M0 81.1C-5 79.8 -10 78.5 -15.6 78.2C-21.1 77.9 -27.2 78.7 -31 74.9C-34.9 71.2 -36.4 62.8 -38.2 57.2C-40 51.5 -42.1 48.4 -46.3 46.3C-50.5 44.2 -56.8 43 -58.8 39.3C-60.9 35.6 -58.7 29.6 -61.2 25.4C-63.7 21.1 -70.9 18.8 -75 14.9C-79.1 11 -80.1 5.5 -81.1 0L0 0Z" fill="#45a3fb"></path></g><g transform="translate(0, 600)"><path d="M0 -324.5C19 -313.6 37.9 -302.8 59.3 -298.2C80.7 -293.6 104.4 -295.2 114.8 -277.2C125.2 -259.1 122.2 -221.2 143.9 -215.4C165.6 -209.5 211.8 -235.5 229.5 -229.5C247.1 -223.4 236 -185.1 242.8 -162.2C249.6 -139.3 274.3 -131.9 279.9 -116C285.6 -100.1 272.3 -75.7 276.6 -55C280.8 -34.3 302.7 -17.1 324.5 0L0 0Z" fill="#2e3b4a"></path><path d="M0 -243.4C14.2 -235.2 28.5 -227.1 44.5 -223.6C60.5 -220.2 78.3 -221.4 86.1 -207.9C93.9 -194.3 91.7 -165.9 107.9 -161.5C124.2 -157.1 158.9 -176.7 172.1 -172.1C185.3 -167.5 177 -138.8 182.1 -121.7C187.2 -104.5 205.7 -98.9 210 -87C214.2 -75 204.2 -56.8 207.4 -41.3C210.6 -25.7 227 -12.9 243.4 0L0 0Z" fill="#3a638c"></path><path d="M0 -162.2C9.5 -156.8 19 -151.4 29.7 -149.1C40.3 -146.8 52.2 -147.6 57.4 -138.6C62.6 -129.5 61.1 -110.6 71.9 -107.7C82.8 -104.7 105.9 -117.8 114.7 -114.7C123.5 -111.7 118 -92.6 121.4 -81.1C124.8 -69.7 137.1 -65.9 140 -58C142.8 -50 136.2 -37.9 138.3 -27.5C140.4 -17.1 151.3 -8.6 162.2 0L0 0Z" fill="#428dd5"></path><path d="M0 -81.1C4.7 -78.4 9.5 -75.7 14.8 -74.5C20.2 -73.4 26.1 -73.8 28.7 -69.3C31.3 -64.8 30.6 -55.3 36 -53.8C41.4 -52.4 53 -58.9 57.4 -57.4C61.8 -55.8 59 -46.3 60.7 -40.6C62.4 -34.8 68.6 -33 70 -29C71.4 -25 68.1 -18.9 69.1 -13.8C70.2 -8.6 75.7 -4.3 81.1 0L0 0Z" fill="#45a3fb"></path></g></svg>